<mxfile host="65bd71144e">
    <diagram id="ZtDvYDG_mMcLs1CSS195" name="Page-1">
        <mxGraphModel dx="1132" dy="894" grid="1" gridSize="10" guides="1" tooltips="1" connect="1" arrows="1" fold="1" page="1" pageScale="1" pageWidth="850" pageHeight="1100" math="0" shadow="0">
            <root>
                <mxCell id="0"/>
                <mxCell id="1" parent="0"/>
                <mxCell id="59" value="" style="rounded=0;whiteSpace=wrap;html=1;" parent="1" vertex="1">
                    <mxGeometry width="850" height="800" as="geometry"/>
                </mxCell>
                <mxCell id="35" style="edgeStyle=none;html=1;entryX=0.5;entryY=0;entryDx=0;entryDy=0;entryPerimeter=0;dashed=1;fontColor=#FFFFFF;startArrow=none;startFill=0;endArrow=none;endFill=0;strokeColor=#000000;" parent="1" source="36" target="45" edge="1">
                    <mxGeometry relative="1" as="geometry"/>
                </mxCell>
                <mxCell id="36" value="&lt;font color=&quot;#ffffff&quot;&gt;whalefin-interest&lt;/font&gt;" style="sketch=0;points=[[0,0,0],[0.25,0,0],[0.5,0,0],[0.75,0,0],[1,0,0],[0,1,0],[0.25,1,0],[0.5,1,0],[0.75,1,0],[1,1,0],[0,0.25,0],[0,0.5,0],[0,0.75,0],[1,0.25,0],[1,0.5,0],[1,0.75,0]];outlineConnect=0;fontColor=#232F3E;gradientColor=#4D72F3;gradientDirection=north;fillColor=#3334B9;strokeColor=#000000;dashed=0;verticalLabelPosition=bottom;verticalAlign=top;align=center;html=1;fontSize=12;fontStyle=0;aspect=fixed;shape=mxgraph.aws4.resourceIcon;resIcon=mxgraph.aws4.aurora;" parent="1" vertex="1">
                    <mxGeometry x="577.5" y="450.98" width="66" height="66" as="geometry"/>
                </mxCell>
                <mxCell id="37" style="edgeStyle=none;html=1;entryX=0;entryY=0.5;entryDx=0;entryDy=0;entryPerimeter=0;fontColor=#FFFFFF;endArrow=classic;endFill=1;strokeColor=#000000;exitX=0.75;exitY=0;exitDx=0;exitDy=0;" parent="1" source="33" target="36" edge="1">
                    <mxGeometry relative="1" as="geometry">
                        <Array as="points">
                            <mxPoint x="308" y="640"/>
                            <mxPoint x="335" y="640"/>
                            <mxPoint x="403" y="640"/>
                            <mxPoint x="403" y="484"/>
                        </Array>
                    </mxGeometry>
                </mxCell>
                <mxCell id="38" value="save-update" style="edgeLabel;html=1;align=center;verticalAlign=middle;resizable=0;points=[];fontColor=#000000;" parent="37" vertex="1" connectable="0">
                    <mxGeometry x="-0.6693" y="-1" relative="1" as="geometry">
                        <mxPoint x="82" y="-142" as="offset"/>
                    </mxGeometry>
                </mxCell>
                <mxCell id="39" value="" style="group" parent="1" vertex="1" connectable="0">
                    <mxGeometry x="169.5" y="60" width="177.5" height="90" as="geometry"/>
                </mxCell>
                <mxCell id="40" value="" style="group" parent="39" vertex="1" connectable="0">
                    <mxGeometry x="-6" width="183.5" height="90" as="geometry"/>
                </mxCell>
                <mxCell id="41" value="whalefin-statement" style="rounded=0;whiteSpace=wrap;html=1;" parent="40" vertex="1">
                    <mxGeometry x="23.5" y="30" width="160" height="60" as="geometry"/>
                </mxCell>
                <mxCell id="42" value="" style="sketch=0;html=1;dashed=0;whitespace=wrap;fillColor=#2875E2;strokeColor=#000000;points=[[0.005,0.63,0],[0.1,0.2,0],[0.9,0.2,0],[0.5,0,0],[0.995,0.63,0],[0.72,0.99,0],[0.5,1,0],[0.28,0.99,0]];shape=mxgraph.kubernetes.icon;prIcon=api;shadow=0;fontSize=12;" parent="40" vertex="1">
                    <mxGeometry width="50" height="48" as="geometry"/>
                </mxCell>
                <mxCell id="43" style="edgeStyle=none;html=1;entryX=0.5;entryY=1;entryDx=0;entryDy=0;fontColor=#FFFFFF;endArrow=classic;endFill=1;strokeColor=#000000;exitX=0.5;exitY=0;exitDx=0;exitDy=0;" parent="1" source="33" target="41" edge="1">
                    <mxGeometry relative="1" as="geometry">
                        <Array as="points">
                            <mxPoint x="267" y="400"/>
                        </Array>
                    </mxGeometry>
                </mxCell>
                <mxCell id="44" value="get-statements&lt;br&gt;&amp;lt;createEndTime, createStartTime, ccy&amp;gt;&lt;br&gt;CURRENT_TERM_INTEREST" style="edgeLabel;html=1;align=center;verticalAlign=middle;resizable=0;points=[];fontColor=#000000;" parent="43" vertex="1" connectable="0">
                    <mxGeometry x="0.4225" y="-1" relative="1" as="geometry">
                        <mxPoint x="-7" y="186" as="offset"/>
                    </mxGeometry>
                </mxCell>
                <mxCell id="45" value="&lt;font color=&quot;#000000&quot; style=&quot;background-color: rgb(255 , 255 , 255)&quot;&gt;&lt;u style=&quot;font-size: 10px&quot;&gt;Yields&lt;br&gt;&lt;/u&gt;&lt;br&gt;&lt;/font&gt;&lt;div style=&quot;text-align: left&quot;&gt;&lt;font color=&quot;#000000&quot; style=&quot;background-color: rgb(255 , 255 , 255)&quot;&gt;&lt;span style=&quot;font-size: 10px&quot;&gt;&amp;nbsp;[&amp;nbsp;&lt;/span&gt;&lt;span style=&quot;font-size: 10px&quot;&gt;{ &quot;currentBalance&quot;: &quot;100020.5220509766&quot;,&lt;/span&gt;&lt;/font&gt;&lt;/div&gt;&lt;font color=&quot;#000000&quot; style=&quot;background-color: rgb(255 , 255 , 255)&quot;&gt;&lt;span style=&quot;font-size: 10px&quot;&gt;&lt;div style=&quot;text-align: left&quot;&gt;&amp;nbsp; &amp;nbsp; &amp;nbsp;&quot;previousBalance&quot;: &quot;100010.685&quot;,&lt;/div&gt;&lt;/span&gt;&lt;span style=&quot;font-size: 10px&quot;&gt;&lt;div style=&quot;text-align: left&quot;&gt;&amp;nbsp; &amp;nbsp; &amp;nbsp;&quot;ccy&quot;: &quot;USD&quot;,&lt;/div&gt;&lt;div style=&quot;text-align: left&quot;&gt;&amp;nbsp; &amp;nbsp; &amp;nbsp;&quot;diff&quot;: &quot;9.8370509766&quot;, &lt;br&gt;&amp;nbsp; &amp;nbsp; &amp;nbsp;&quot;direction&quot;: &quot;IN&quot;,&amp;nbsp; &amp;nbsp; &amp;nbsp; &amp;nbsp; &lt;br&gt;&amp;nbsp; &amp;nbsp; &amp;nbsp;&quot;type&quot;: &quot;CURRENT_TERM_INTEREST&quot;,&amp;nbsp; &amp;nbsp; &amp;nbsp; &amp;nbsp; &amp;nbsp; &amp;nbsp; &amp;nbsp; &amp;nbsp; &amp;nbsp;&quot;createdAt&quot;: &quot;2022-03-10T08:04:14.935Z&quot; }]&lt;/div&gt;&lt;/span&gt;&lt;/font&gt;" style="shape=note;size=20;whiteSpace=wrap;html=1;labelBackgroundColor=#FFFFFF;fontColor=#FFFFFF;dashed=1;strokeColor=#000000;fillColor=#FFFFFF;" parent="1" vertex="1">
                    <mxGeometry x="495" y="566" width="229" height="162" as="geometry"/>
                </mxCell>
                <mxCell id="47" value="&lt;font style=&quot;font-size: 10px&quot; color=&quot;#000000&quot;&gt;Interest of Flexible Earn will be distributed at 16:00 (UTC+8) daily and starts accruing once credited to your wallet&lt;/font&gt;" style="shape=note;size=20;whiteSpace=wrap;html=1;labelBackgroundColor=#FFFFFF;fontColor=#FFFFFF;dashed=1;" parent="1" vertex="1">
                    <mxGeometry x="514" y="71.25" width="240" height="97.5" as="geometry"/>
                </mxCell>
                <mxCell id="48" style="edgeStyle=none;html=1;entryX=0;entryY=0.5;entryDx=0;entryDy=0;entryPerimeter=0;fontSize=10;fontColor=#FFFFFF;startArrow=none;startFill=0;endArrow=none;endFill=0;strokeColor=#000000;dashed=1;" parent="1" source="41" target="47" edge="1">
                    <mxGeometry relative="1" as="geometry"/>
                </mxCell>
                <mxCell id="49" value="" style="rounded=0;whiteSpace=wrap;html=1;dashed=1;fontColor=#FFFFFF;align=left;" parent="1" vertex="1">
                    <mxGeometry x="198" y="570" width="135" height="15" as="geometry"/>
                </mxCell>
                <mxCell id="50" value="" style="rounded=0;whiteSpace=wrap;html=1;dashed=1;fontColor=#FFFFFF;align=left;" parent="1" vertex="1">
                    <mxGeometry x="333" y="550.48" width="135" height="15" as="geometry"/>
                </mxCell>
                <mxCell id="55" value="&lt;i&gt;/api/v2/asset/statement&lt;/i&gt;" style="verticalLabelPosition=bottom;html=1;verticalAlign=top;align=left;strokeColor=none;fillColor=#00BEF2;shape=mxgraph.azure.service_endpoint;" parent="1" vertex="1">
                    <mxGeometry x="295" y="153" width="50" height="20" as="geometry"/>
                </mxCell>
                <mxCell id="56" value="&lt;blockquote style=&quot;margin: 0 0 0 40px ; border: none ; padding: 0px&quot;&gt;&lt;br&gt;&lt;/blockquote&gt;" style="outlineConnect=0;dashed=0;verticalLabelPosition=bottom;verticalAlign=top;align=left;html=1;shape=mxgraph.aws3.api_gateway;fillColor=#D9A741;gradientColor=none;" parent="1" vertex="1">
                    <mxGeometry x="240" y="269" width="51.82" height="63" as="geometry"/>
                </mxCell>
                <mxCell id="57" value="&lt;i&gt;https://be.whalefin.com/&lt;/i&gt;" style="text;html=1;strokeColor=none;fillColor=none;align=center;verticalAlign=middle;whiteSpace=wrap;rounded=0;" parent="1" vertex="1">
                    <mxGeometry x="296" y="285.5" width="141" height="30" as="geometry"/>
                </mxCell>
                <mxCell id="58" value="" style="group" parent="1" vertex="1" connectable="0">
                    <mxGeometry x="125" y="590" width="222.5" height="176" as="geometry"/>
                </mxCell>
                <mxCell id="31" value="" style="sketch=0;html=1;aspect=fixed;strokeColor=none;shadow=0;align=center;verticalAlign=top;fillColor=#3B8DF1;shape=mxgraph.gcp2.clock" parent="58" vertex="1">
                    <mxGeometry width="45" height="45" as="geometry"/>
                </mxCell>
                <mxCell id="32" value="" style="group" parent="58" vertex="1" connectable="0">
                    <mxGeometry x="45" y="86" width="177.5" height="90" as="geometry"/>
                </mxCell>
                <mxCell id="33" value="bitso-whalefin-interest" style="rounded=0;whiteSpace=wrap;html=1;" parent="32" vertex="1">
                    <mxGeometry x="17.5" y="30" width="160" height="60" as="geometry"/>
                </mxCell>
                <mxCell id="34" value="" style="verticalLabelPosition=bottom;html=1;verticalAlign=top;align=center;strokeColor=none;fillColor=#00BEF2;shape=mxgraph.azure.startup_task;pointerEvents=1;labelBackgroundColor=#FFFFFF;fontColor=#FFFFFF;gradientColor=none;shadow=0;" parent="32" vertex="1">
                    <mxGeometry width="47.5" height="50" as="geometry"/>
                </mxCell>
                <mxCell id="30" style="edgeStyle=none;html=1;entryX=0;entryY=0.5;entryDx=0;entryDy=0;fontColor=#FFFFFF;endArrow=classic;endFill=1;strokeColor=#000000;" parent="58" source="31" target="33" edge="1">
                    <mxGeometry relative="1" as="geometry">
                        <Array as="points">
                            <mxPoint x="23" y="98"/>
                            <mxPoint x="23" y="146"/>
                        </Array>
                    </mxGeometry>
                </mxCell>
                <mxCell id="62" value="&lt;span style=&quot;font-family: &amp;#34;helvetica&amp;#34; ; font-size: 12px ; font-style: normal ; letter-spacing: normal ; text-align: center ; text-indent: 0px ; text-transform: none ; word-spacing: 0px ; display: inline ; float: none ; background-color: rgb(255 , 255 , 255)&quot;&gt;&lt;b&gt;Whalefin Environment&lt;/b&gt;&lt;/span&gt;" style="text;whiteSpace=wrap;html=1;" parent="1" vertex="1">
                    <mxGeometry x="39.996666666666556" y="20.00111111111096" width="137" height="28" as="geometry"/>
                </mxCell>
                <mxCell id="63" value="&lt;span style=&quot;font-family: &amp;#34;helvetica&amp;#34; ; font-size: 12px ; font-style: normal ; letter-spacing: normal ; text-align: center ; text-indent: 0px ; text-transform: none ; word-spacing: 0px ; display: inline ; float: none ; background-color: rgb(255 , 255 , 255)&quot;&gt;&lt;b&gt;Bitso Environment&lt;/b&gt;&lt;/span&gt;" style="text;whiteSpace=wrap;html=1;" parent="1" vertex="1">
                    <mxGeometry x="39.99666666666653" y="400.00111111111096" width="137" height="28" as="geometry"/>
                </mxCell>
                <mxCell id="64" value="" style="endArrow=none;dashed=1;html=1;exitX=0.057;exitY=0.337;exitDx=0;exitDy=0;exitPerimeter=0;entryX=0.941;entryY=0.487;entryDx=0;entryDy=0;entryPerimeter=0;" parent="1" target="59" edge="1">
                    <mxGeometry width="50" height="50" relative="1" as="geometry">
                        <mxPoint x="40" y="389.9999999999998" as="sourcePoint"/>
                        <mxPoint x="670" y="389.9999999999998" as="targetPoint"/>
                    </mxGeometry>
                </mxCell>
                <mxCell id="65" value="" style="endArrow=none;dashed=1;html=1;exitX=0.057;exitY=0.337;exitDx=0;exitDy=0;exitPerimeter=0;entryX=0.941;entryY=0.275;entryDx=0;entryDy=0;entryPerimeter=0;" parent="1" target="59" edge="1">
                    <mxGeometry width="50" height="50" relative="1" as="geometry">
                        <mxPoint x="40" y="220" as="sourcePoint"/>
                        <mxPoint x="670" y="220" as="targetPoint"/>
                    </mxGeometry>
                </mxCell>
            </root>
        </mxGraphModel>
    </diagram>
</mxfile>